<svg width="421" height="418" fill="none" xmlns="http://www.w3.org/2000/svg"><path d="M226.536 226.681c-15.767-5.328-37.12-8.599-60.629-8.599-48.523 0-87.858 13.935-87.858 31.125v78.658c0-22.088 39.335-39.993 87.858-39.993 23.509 0 44.862 4.203 60.629 11.049v-72.24Z" stroke="#fff" stroke-width="1.4" stroke-miterlimit="10" stroke-linecap="round" stroke-linejoin="round"/><path d="M78.05 327.865v-78.657c0 8.298 9.183 15.838 24.125 21.418 13.348 4.985 31.294 8.405 51.438 9.405V367.47c-20.14-1.284-38.091-5.676-51.438-12.077-14.952-7.17-24.125-16.861-24.125-27.528Z" fill="#B880FF"/><path d="M78.05 327.865v-78.657c0 8.298 9.183 15.838 24.125 21.418 13.348 4.985 31.294 8.405 51.438 9.405V367.47c-20.14-1.284-38.091-5.676-51.438-12.077-14.952-7.17-24.125-16.861-24.125-27.528Z" stroke="#fff" stroke-width="1.4" stroke-miterlimit="10" stroke-linecap="round" stroke-linejoin="round"/><path d="M81.632 307.21c-2.268-3.48-3.56-7.503-3.582-11.681M100.11 322.097c-5.203-2.784-10.349-5.924-14.563-10.126M107.882 325.565a134.58 134.58 0 0 1-2.453-1.016M130.416 332.125c-5.736-1.155-11.418-2.613-16.963-4.497M84.718 322.501c-3.504-3.997-5.859-8.873-6.668-14.162M101.387 333.908c-3.726-1.631-7.34-3.567-10.64-5.968M118.604 339.588c-4.008-1.017-7.986-2.167-11.88-3.565M126.278 341.309c-.481-.099-.961-.2-1.442-.302" stroke="#fff" stroke-width="1.4" stroke-miterlimit="10" stroke-linecap="round" stroke-linejoin="round"/><path d="M112.491 289.823c-3.679-1-7.13-2.1-10.317-3.29-14.942-5.58-24.125-13.12-24.125-21.419v8.366c0 8.299 9.183 15.839 24.125 21.419 3.187 1.19 6.638 2.289 10.317 3.29v-8.366Z" fill="#fff"/><path d="M112.491 289.823c-3.679-1-7.13-2.1-10.317-3.29-14.942-5.58-24.125-13.12-24.125-21.419v8.366c0 8.299 9.183 15.839 24.125 21.419 3.187 1.19 6.638 2.289 10.317 3.29v-8.366Z" stroke="#fff" stroke-width="1.4" stroke-miterlimit="10" stroke-linecap="round" stroke-linejoin="round"/><path d="M128.879 308.76c-10.087-1.664-19.135-3.987-26.704-6.814-14.942-5.579-24.125-13.119-24.125-21.418v4.168c0 9.483 9.178 18.098 24.125 24.473 7.568 3.228 16.617 5.881 26.704 7.782v-8.191Z" fill="#fff"/><path d="M128.879 308.76c-10.087-1.664-19.135-3.987-26.704-6.814-14.942-5.579-24.125-13.119-24.125-21.418v4.168c0 9.483 9.178 18.098 24.125 24.473 7.568 3.228 16.617 5.881 26.704 7.782v-8.191Z" stroke="#fff" stroke-width="1.4" stroke-miterlimit="10" stroke-linecap="round" stroke-linejoin="round"/><path d="m168.675 205.177-10.428 18.742 27.24 11.051 11.139-18.321-27.951-11.472Z" fill="#B880FF"/><path d="M121.212 159.523s7.274 10.781 11.168 13.745c-4.55-6.926-6.327-18.471-6.327-18.471l-4.841 4.726Z" fill="#000"/><path d="M121.212 159.523s7.274 10.781 11.168 13.745c-4.55-6.926-6.327-18.471-6.327-18.471l-4.841 4.726Z" stroke="#000" stroke-width="1.4" stroke-miterlimit="10" stroke-linecap="round" stroke-linejoin="round"/><path d="M162.249 180.455v-63.907c19.827-4.692 44.309-7.464 70.801-7.464 66.092 0 119.67 17.251 119.67 38.531v-.246 73.005c0-27.344-53.578-49.51-119.67-49.51-26.492 0-50.974 3.562-70.801 9.591Z" fill="#B880FF"/><path d="M162.249 180.455v-63.907c19.827-4.692 44.309-7.464 70.801-7.464 66.092 0 119.67 17.251 119.67 38.531v-.246 73.005c0-27.344-53.578-49.51-119.67-49.51-26.492 0-50.974 3.562-70.801 9.591Z" stroke="#fff" stroke-width="1.4" stroke-miterlimit="10" stroke-linecap="round" stroke-linejoin="round"/><path d="M237.448 165.205c0-12.925-12.088-23.403-26.999-23.403-14.912 0-27 10.478-27 23.403 0 12.925 12.088 23.404 27 23.404 14.911 0 26.999-10.479 26.999-23.404Z" fill="#B880FF"/><path d="M187.807 151.834s-5.609 21.092 24.097 35.938c-7.901-8.702-9.212-20.268-9.212-20.268s1.991 10.795 15.737 18.75c-7.902-8.702-11.116-19.714-7.678-29.59.054 5.74 3.293 17.818 25.448 29.853-11.879-11.444-10.093-28.023-10.093-28.023l-16.806-7.627-21.493.967Z" fill="#000"/><path d="M187.807 151.834s-5.609 21.092 24.097 35.938c-7.901-8.702-9.212-20.268-9.212-20.268s1.991 10.795 15.737 18.75c-7.902-8.702-11.116-19.714-7.678-29.59.054 5.74 3.293 17.818 25.448 29.853-11.879-11.444-10.093-28.023-10.093-28.023l-16.806-7.627-21.493.967Z" stroke="#000" stroke-width="1.4" stroke-miterlimit="10" stroke-linecap="round" stroke-linejoin="round"/><path d="m203.659 147.864-.124.02V87.157c13.887-3.197 31.896-5.127 51.574-5.127 43.93 0 79.542 9.617 79.542 21.48v62.427" fill="#B880FF"/><path d="m203.659 147.864-.124.02V87.157c13.887-3.197 31.896-5.127 51.574-5.127 43.93 0 79.542 9.617 79.542 21.48v62.427" stroke="#fff" stroke-width="1.4" stroke-miterlimit="10" stroke-linecap="round" stroke-linejoin="round"/><path d="M305.325 184.234v-64.089l-.003-.057c17.898-3.939 29.329-9.939 29.329-16.66v62.427c0 7.415-11.431 14.034-29.329 18.379h.003Z" fill="#B880FF"/><path d="M305.325 184.234v-64.089l-.003-.057c17.898-3.939 29.329-9.939 29.329-16.66v62.427c0 7.415-11.431 14.034-29.329 18.379h.003Z" stroke="#fff" stroke-width="1.4" stroke-miterlimit="10" stroke-linecap="round" stroke-linejoin="round"/><path d="M207.452 20.265s-2.22-8.95 1.586-6.706l-1.586 6.706Z" fill="#B880FF"/><path d="M207.452 20.265s-2.22-8.95 1.586-6.706" stroke="#fff" stroke-width="1.4" stroke-miterlimit="10" stroke-linecap="round" stroke-linejoin="round"/><path d="M216.451 17.661c1.07.24 4.004 2.284 2.418 4.046-1.586 1.762-3.965-.801-3.965-.801" fill="#B880FF"/><path d="M216.451 17.661c1.07.24 4.004 2.284 2.418 4.046-1.586 1.762-3.965-.801-3.965-.801" stroke="#fff" stroke-width="1.4" stroke-miterlimit="10" stroke-linecap="round" stroke-linejoin="round"/><path d="M273.645 71.29V16.672c0-8.765-23.162-15.87-51.733-15.87-8.458 0-16.442.623-23.491 1.727v53.465c7.049-1.194 15.033-1.867 23.491-1.867 28.571 0 51.733 7.684 51.733 17.163Z" fill="#B880FF"/><path d="M273.645 71.29V16.672c0-8.765-23.162-15.87-51.733-15.87-8.458 0-16.442.623-23.491 1.727v53.465c7.049-1.194 15.033-1.867 23.491-1.867 28.571 0 51.733 7.684 51.733 17.163Z" stroke="#fff" stroke-width="1.4" stroke-miterlimit="10" stroke-linecap="round" stroke-linejoin="round"/><path d="M243.657 37.27c-8.809-1.195-17.718-1.62-26.6-1.366M273.645 52.01c.172-7.123-10.832-10.268-16.021-11.828a80.576 80.576 0 0 0-7.976-1.937M243.658 44.031a156.87 156.87 0 0 0-9.742-1.01M252.5 45.601a91.305 91.305 0 0 0-2.852-.596M273.644 58.77c-.687-7.376-9.347-9.762-15.456-11.658" stroke="#fff" stroke-width="1.4" stroke-miterlimit="10" stroke-linecap="round" stroke-linejoin="round"/><path d="M181.052 147.145V42.171a388.192 388.192 0 0 0-25.507-.828c-66.7 0-120.77 16.587-120.77 37.048v105.063c0-12.41 12.628-14.537 33.208-22.875 22.004-8.914 53.097-14.472 87.562-14.472 8.751 0 17.285.358 25.507 1.038Z" fill="#B880FF"/><path d="M181.052 147.145V42.171a388.192 388.192 0 0 0-25.507-.828c-66.7 0-120.77 16.587-120.77 37.048v105.063c0-12.41 12.628-14.537 33.208-22.875 22.004-8.914 53.097-14.472 87.562-14.472 8.751 0 17.285.358 25.507 1.038Z" stroke="#fff" stroke-width="1.4" stroke-miterlimit="10" stroke-linecap="round" stroke-linejoin="round"/><path d="M192.034 72.146s.073-7.705-8.335-12.978c-11.461-7.187-33.745-6.645-41.324 10.4-7.578 17.047-33.03 21.813-52.62 9.39 13.871 11.99 42.039 14.549 49.904 6.986-8.15 11.504-18.875 3.993-28.455 14.971-9.58 10.979-7.578 53.449-7.578 53.449s38.034-30.913 59.626-30.913c21.591 0 61.627 40.881 72.066 36.258 10.437-4.623 17.384-8.205 17.384-8.205s-6.947-35.601-35.258-39.309c-37.35-4.892-31.071-12.294-28.926-27.895" fill="#000"/><path d="M192.034 72.146s.073-7.705-8.335-12.978c-11.461-7.187-33.745-6.645-41.324 10.4-7.578 17.047-33.03 21.813-52.62 9.39 13.871 11.99 42.039 14.549 49.904 6.986-8.15 11.504-18.875 3.993-28.455 14.971-9.58 10.979-7.578 53.449-7.578 53.449s38.034-30.913 59.626-30.913c21.591 0 61.627 40.881 72.066 36.258 10.437-4.623 17.384-8.205 17.384-8.205s-6.947-35.601-35.258-39.309c-37.35-4.892-31.071-12.294-28.926-27.895" stroke="#000" stroke-width="1.4" stroke-miterlimit="10" stroke-linecap="round" stroke-linejoin="round"/><path d="M141.441 71.444s-6.638 13.148-24.729 11.631c-5.117-.429-9.293-1.534-12.651-2.899" stroke="#000" stroke-width="1.4" stroke-miterlimit="10" stroke-linecap="round" stroke-linejoin="round"/><path d="M34.774 184.647c0 12.4 12.61 23.666 33.163 32.002V103.884c-20.54-6.642-33.163-15.616-33.163-25.493v106.256Z" fill="#B880FF"/><path d="M34.774 184.647c0 12.4 12.61 23.666 33.163 32.002V103.884c-20.54-6.642-33.163-15.616-33.163-25.493v106.256Z" stroke="#fff" stroke-width="1.4" stroke-miterlimit="10" stroke-linecap="round" stroke-linejoin="round"/><path d="M151.686 98.021s.771 10.045.056 13.44c2.573 6.139 25.165 4.048 25.165 4.048s-1.082-4.668.531-8.078c1.614-3.41-25.752-9.41-25.752-9.41Z" fill="#B880FF"/><path d="M151.686 98.021s.771 10.045.056 13.44c2.573 6.139 25.165 4.048 25.165 4.048s-1.082-4.668.531-8.078c1.614-3.41-25.752-9.41-25.752-9.41Z" stroke="#000" stroke-width="1.4" stroke-miterlimit="10" stroke-linecap="round" stroke-linejoin="round"/><path d="M188.598 81.647s-2.736-22.518-26.926-11.065c-6.261 2.965-9.446 7.99-10.686 13.292-2.711-1.74-3.077-6.396-3.077-6.396s-3.781 4.803-3.066 9.859c.503 3.56 3.966 6.08 5.971 7.26.527 2.85 1.459 5.374 2.566 7.206 5.674 9.386 14.555 15.54 25.258 4.452 10.702-11.088 9.96-24.608 9.96-24.608Z" fill="#B880FF"/><path d="M188.598 81.647s-2.736-22.518-26.926-11.065c-6.261 2.965-9.446 7.99-10.686 13.292-2.711-1.74-3.077-6.396-3.077-6.396s-3.781 4.803-3.066 9.859c.503 3.56 3.966 6.08 5.971 7.26.527 2.85 1.459 5.374 2.566 7.206 5.674 9.386 14.555 15.54 25.258 4.452 10.702-11.088 9.96-24.608 9.96-24.608Z" stroke="#000" stroke-width="1.4" stroke-miterlimit="10" stroke-linecap="round" stroke-linejoin="round"/><path d="M174.831 106.522c5.5-5.778 8.441-15.698 9.471-32.886a44.726 44.726 0 0 1 2.01 2.487c2.31 3.073 1.92 5.178 2.297 8.307-.185 3.605-9.339 32.935-25.189 27.248 2.991.166 7.81-1.373 11.411-5.156Z" fill="#fff"/><path d="M188.598 81.647s-2.736-22.518-26.926-11.065c-6.261 2.965-9.446 7.99-10.686 13.292-2.711-1.74-3.077-6.396-3.077-6.396s-3.781 4.803-3.066 9.859c.503 3.56 3.966 6.08 5.971 7.26.527 2.85 1.459 5.374 2.566 7.206 5.674 9.386 14.555 15.54 25.258 4.452 10.702-11.088 9.96-24.608 9.96-24.608Z" stroke="#000" stroke-width="1.4" stroke-miterlimit="10" stroke-linecap="round" stroke-linejoin="round"/><path d="M187.828 88.926c-.154 1.589-1.841 14.59 16.175 14.59 9.568 0 19.135-1.345 26.604.834 4.513 1.317 8.26 3.92 10.778 8.882M168.675 104.727c-.15.011-.301.016-.455.016-3.099 0-5.612-2.277-5.612-5.086 0-.296.028-.586.081-.868" stroke="#000" stroke-width="1.4" stroke-miterlimit="10" stroke-linecap="round" stroke-linejoin="round"/><path d="M192.035 72.146c.53 7.354-8.335 13.746-14.162 13.746-7.078-2.492-20.269-16.36-20.269-16.36" fill="#000"/><path d="M192.035 72.146c.53 7.354-8.335 13.746-14.162 13.746-7.078-2.492-20.269-16.36-20.269-16.36" stroke="#000" stroke-width="1.4" stroke-miterlimit="10" stroke-linecap="round" stroke-linejoin="round"/><path d="M86.719 149.489s-3.539 5.745-2.896 9.786c.644 4.042 2.896 12.749 11.952 14.386 11.567 2.09 20.649-7.163 30.759-20.486 3.375 12.03 18.417 38.892 18.417 38.892s10.452 3.645 14.37 6.284C191.279 196.184 199 179.066 199 179.066s-7.817-8.357-8.102-14.546c-.132-2.861.84-11.734.84-11.734s20.852 19.84 44.295 19.595c27.549-.289 45.166-25.012 45.166-25.012s-11.243 2.304-14.781-7.555c-12.119 8.451-19.071 10.938-28.668 10.065-17.564-1.599-26.096-15.016-34.89-20-8.793-4.984-22.735-9.462-22.735-9.462l-2.144-7.656s-16.301 8.956-27.132-1.95c-2.574 8.775-6.899 10.04-15.192 12.062-8.294 2.022-21.735 2.022-28.026 14.012-6.292 11.99-20.912 12.604-20.912 12.604Z" fill="#B880FF"/><path d="M86.719 149.489s-3.539 5.745-2.896 9.786c.644 4.042 2.896 12.749 11.952 14.386 11.567 2.09 20.649-7.163 30.759-20.486 3.375 12.03 18.417 38.892 18.417 38.892s10.452 3.645 14.37 6.284C191.279 196.184 199 179.066 199 179.066s-7.817-8.357-8.102-14.546c-.132-2.861.84-11.734.84-11.734s20.852 19.84 44.295 19.595c27.549-.289 45.166-25.012 45.166-25.012s-11.243 2.304-14.781-7.555c-12.119 8.451-19.071 10.938-28.668 10.065-17.564-1.599-26.096-15.016-34.89-20-8.793-4.984-22.735-9.462-22.735-9.462l-2.144-7.656s-16.301 8.956-27.132-1.95c-2.574 8.775-6.899 10.04-15.192 12.062-8.294 2.022-21.735 2.022-28.026 14.012-6.292 11.99-20.912 12.604-20.912 12.604Z" stroke="#000" stroke-width="1.4" stroke-miterlimit="10" stroke-linecap="round" stroke-linejoin="round"/><path d="M277.584 125.923s5.064-6.749 11.928-13.09c1.502-1.156 2.435 2.093-5.076 11.701l-1.197 1.28s9.991-8.713 12.989-9.067c2.997-.355-3.847 7.632-10.791 13.204" fill="#B880FF"/><path d="M277.584 125.923s5.064-6.749 11.928-13.09c1.502-1.156 2.435 2.093-5.076 11.701l-1.197 1.28s9.991-8.713 12.989-9.067c2.997-.355-3.847 7.632-10.791 13.204" stroke="#000" stroke-width="1.4" stroke-miterlimit="10" stroke-linecap="round" stroke-linejoin="round"/><path d="m278.876 127.604 11.668-14.096-1.033-.675-6.328 6.185-6.582 7.768 2.275.818Z" fill="#fff"/><path d="M277.584 125.923s5.064-6.749 11.928-13.09c1.502-1.156 2.435 2.093-5.076 11.701l-1.197 1.28s9.991-8.713 12.989-9.067c2.997-.355-3.847 7.632-10.791 13.204M289.721 126.454s6.618-3.421 9.579-2.832c2.961.589-3.878 5.698-12.176 8.857" stroke="#000" stroke-width="1.4" stroke-miterlimit="10" stroke-linecap="round" stroke-linejoin="round"/><path d="M192.189 114.526s25.938 3.251 41.771 15.353c15.832 12.102 16.722 20.148 16.722 20.148" stroke="#B880FF" stroke-width="1.4" stroke-miterlimit="10" stroke-linecap="round" stroke-linejoin="round"/><path d="M217.443 112.195s22.306-.006 34.84 22.28c-14.237-14.43-32.849-15.702-32.849-15.702l-1.991-6.578Z" fill="#000"/><path d="M217.443 112.195s22.306-.006 34.84 22.28c-14.237-14.43-32.849-15.702-32.849-15.702l-1.991-6.578Z" stroke="#000" stroke-width="1.4" stroke-miterlimit="10" stroke-linecap="round" stroke-linejoin="round"/><path d="M180.125 120.417c-23.235 7.584-33.903-1.663-33.903-1.663l4.627-7.943s9.973 9.028 27.131 1.95l2.145 7.656Z" fill="#fff"/><path d="M180.125 120.417c-23.235 7.584-33.903-1.663-33.903-1.663l4.627-7.943s9.973 9.028 27.131 1.95l2.145 7.656Z" stroke="#fff" stroke-width="1.4" stroke-miterlimit="10" stroke-linecap="round" stroke-linejoin="round"/><path d="M199 179.066s37.123 21.619 57.374 52.979c30.992 47.995 41.717 107.8 52.869 129.901 11.154 22.102 27.239 30.661 26.918 50.162-13.834 1.626-23.486-5.525-26.703-17.876-3.217-12.351-10.944-11.699-12.547-15.926-4.397-11.593 3.217-13.976-17.052-44.203-20.268-30.228-39.679-67.714-80.001-104.983-3.003-39.003-.858-50.054-.858-50.054Z" fill="#B880FF"/><path d="M199 179.066s37.123 21.619 57.374 52.979c30.992 47.995 41.717 107.8 52.869 129.901 11.154 22.102 27.239 30.661 26.918 50.162-13.834 1.626-23.486-5.525-26.703-17.876-3.217-12.351-10.944-11.699-12.547-15.926-4.397-11.593 3.217-13.976-17.052-44.203-20.268-30.228-39.679-67.714-80.001-104.983-3.003-39.003-.858-50.054-.858-50.054Z" stroke="#000" stroke-width="1.4" stroke-miterlimit="10" stroke-linecap="round" stroke-linejoin="round"/><path d="M208.65 237.57s-2.587-31.834 12.005-43.328c-13.917-10.222-21.656-15.176-21.656-15.176s-8.579 17.335-39.679 19.285c7.064 9.2 11.91 16.632 11.91 16.632s25.624 12.837 34.633 23.887c1.678-2.402 2.787-1.3 2.787-1.3Z" fill="#B880FF"/><path d="M208.65 237.57s-2.587-31.834 12.005-43.328c-13.917-10.222-21.656-15.176-21.656-15.176s-8.579 17.335-39.679 19.285c7.064 9.2 11.91 16.632 11.91 16.632s25.624 12.837 34.633 23.887c1.678-2.402 2.787-1.3 2.787-1.3ZM205.865 238.87s-3.52 10.384-14.486 16.243M273.782 259.961s1.859 16.179-3.861 23.546" stroke="#000" stroke-width="1.4" stroke-miterlimit="10" stroke-linecap="round" stroke-linejoin="round"/><path d="M250.8 169.842c-10.511-8.668-4.167-19.963-4.167-19.963s13.422-4.266 20.893-11.483c-2.824 5.784 1.787 11.368 11.349 11.862-12.422 15.049-28.075 19.584-28.075 19.584Z" fill="#fff"/><path d="M250.8 169.842c-10.511-8.668-4.167-19.963-4.167-19.963s13.422-4.266 20.893-11.483c-2.824 5.784 1.787 11.368 11.349 11.862-12.422 15.049-28.075 19.584-28.075 19.584Z" stroke="#fff" stroke-width="1.4" stroke-miterlimit="10" stroke-linecap="round" stroke-linejoin="round"/><path d="M124.53 155.774c3.339-3.998 4.767-7.458 5.378-9.672M112.219 147.836s-1.468 22.142-4.416 23.778" stroke="#000" stroke-width="1.4" stroke-miterlimit="10" stroke-linecap="round" stroke-linejoin="round"/><path d="M86.719 149.489s7.082-14.747 8.047-21.789c5.256 1.625 18.977 4.237 18.977 4.237s-1.823 18.489-2.573 27.698c-12.011 6.501-22.2-3.754-24.451-10.146Z" fill="#fff"/><path d="M86.719 149.489s7.082-14.747 8.047-21.789c5.256 1.625 18.977 4.237 18.977 4.237s-1.823 18.489-2.573 27.698c-12.011 6.501-22.2-3.754-24.451-10.146Z" stroke="#fff" stroke-width="1.4" stroke-miterlimit="10" stroke-linecap="round" stroke-linejoin="round"/><path d="M78.303 113.345c3.174 3.77 8.785 2.672 12.91 5.925.758.599 2.357 7.201 4.302 9.559 5.325 6.459 10.722 4.863 15.465 3.203 8.551-2.992 8.347-14.491 9.409-17.289 1.836-4.837 6.789-7.063 5.81-8.405-.508-.698-4.133.011-5.738.924-4.705 2.676-6.607 6.13-6.607 6.13s-1.872-6.256-3.148-8.297c-1.276-2.041-6.726-8.3-8.487-10.816-.873-1.248-2.726.678-1.303 4.9.513 1.525 3.846 5.652 3.846 5.652l1.774 6.462s-7.263-10.671-13.326-13.64c-3.397-1.663-3.263 1.186-1.81 2.921a39.208 39.208 0 0 0 2.388 2.582 18.197 18.197 0 0 1 2.964 3.864l3.022 5.264s-13.23-7.856-17.502-8.884c-1.476-.355-2.521 1.415 2.418 5.248 5.103 3.96 8.836 5.295 8.836 5.295s-17.793-3.65-15.223-.598Z" fill="#B880FF"/><path d="M78.303 113.345c3.174 3.77 8.785 2.672 12.91 5.925.758.599 2.357 7.201 4.302 9.559 5.325 6.459 10.722 4.863 15.465 3.203 8.551-2.992 8.347-14.491 9.409-17.289 1.836-4.837 6.789-7.063 5.81-8.405-.508-.698-4.133.011-5.738.924-4.705 2.676-6.607 6.13-6.607 6.13s-1.872-6.256-3.148-8.297c-1.276-2.041-6.726-8.3-8.487-10.816-.873-1.248-2.726.678-1.303 4.9.513 1.525 3.846 5.652 3.846 5.652l1.774 6.462s-7.263-10.671-13.326-13.64c-3.397-1.663-3.263 1.186-1.81 2.921a39.208 39.208 0 0 0 2.388 2.582 18.197 18.197 0 0 1 2.964 3.864l3.022 5.264s-13.23-7.856-17.502-8.884c-1.476-.355-2.521 1.415 2.418 5.248 5.103 3.96 8.836 5.295 8.836 5.295s-17.793-3.65-15.223-.598Z" stroke="#000" stroke-width="1.4" stroke-miterlimit="10" stroke-linecap="round" stroke-linejoin="round"/><path d="M96.88 116.701c2.97-1.774 7.845-4.077 11.336-4.184l-11.336 4.184Z" fill="#B880FF"/><path d="M96.88 116.701c2.97-1.774 7.845-4.077 11.336-4.184" stroke="#000" stroke-width="1.4" stroke-miterlimit="10" stroke-linecap="round" stroke-linejoin="round"/><path d="M106.745 111.519c-.115-.394-.89-.991-1.027-1.379-2.062-2.838-7.665-10.116-12.507-12.487-1.645-.805-2.46-.551-2.7.12 2.913 1.143 7.91 6.396 11.364 10.726 2.132 2.673 5.045 3.463 4.87 3.02ZM99.775 112.285c-2.078-1.222-13.632-7.954-17.502-8.885-.814-.196-1.495.257-1.115 1.343 3.694 1.377 7.49 4.595 14.854 7.656 2.967 1.12 4.031.362 3.763-.114ZM101.304 130.761c-3.603-2.706-6.757-13.213-10.145-11.531.018.014 2.412 7.241 4.356 9.599 3.042 3.689 6.137 5.546 12.812 4.3-.194-.396-2.895.731-7.023-2.368ZM78.944 113.34c7.167 1.66 14.12 2.677 14.692 1.269-.414-.337-1.366-.758-1.832-1.001-4.186-.786-14.489-2.539-13.703-.59.108.051.714.293.843.322ZM111.685 119.138c.59-2.048 1.388-4.039 1.867-6.164a2.66 2.66 0 0 1 .085-.29c-.529-1.694-1.917-5.969-2.93-7.589-1.276-2.041-6.726-8.3-8.487-10.817-.374-.534-.927-.482-1.326.081.111.115.216.247.312.397 2.136 3.373 4.734 6.432 6.754 9.881 2.006 3.424 2.991 6.98 3.359 10.922.112 1.194.237 2.387.366 3.579Z" fill="#fff"/><path d="M111.24 121.103c-2.073-2.708-.175-7.233.465-7.187.231.017.699 1.721.786 1.084.206-1.508 1.104-.847.869-.708-2.452 1.444-1.484 7.642-2.12 6.811Z" fill="#fff"/><path d="M78.303 113.345c3.174 3.77 8.785 2.672 12.91 5.925.758.599 2.357 7.201 4.302 9.559 5.325 6.459 10.722 4.863 15.465 3.203 8.551-2.992 8.347-14.491 9.409-17.289 1.836-4.837 6.789-7.063 5.81-8.405-.508-.698-4.133.011-5.738.924-4.705 2.676-6.607 6.13-6.607 6.13s-1.872-6.256-3.148-8.297c-1.276-2.041-6.726-8.3-8.487-10.816-.873-1.248-2.726.678-1.303 4.9.513 1.525 3.846 5.652 3.846 5.652l1.774 6.462s-7.263-10.671-13.326-13.64c-3.397-1.663-3.263 1.186-1.81 2.921a39.208 39.208 0 0 0 2.388 2.582 18.197 18.197 0 0 1 2.964 3.864l3.022 5.264s-13.23-7.856-17.502-8.884c-1.476-.355-2.521 1.415 2.418 5.248 5.103 3.96 8.836 5.295 8.836 5.295s-17.793-3.65-15.223-.598Z" stroke="#000" stroke-width="1.4" stroke-miterlimit="10" stroke-linecap="round" stroke-linejoin="round"/><path d="M111.947 120.887s-.327-7.227 5.203-11.287" stroke="#000" stroke-width="1.4" stroke-miterlimit="10" stroke-linecap="round" stroke-linejoin="round"/><path d="M175.237 94.147c1.29.29 2.243 1.321 2.243 2.549 0 1.453-1.336 2.63-2.985 2.63-1.376 0-2.535-.82-2.88-1.936" fill="#B880FF"/><path d="M175.237 94.147c1.29.29 2.243 1.321 2.243 2.549 0 1.453-1.336 2.63-2.985 2.63-1.376 0-2.535-.82-2.88-1.936" stroke="#000" stroke-width="1.4" stroke-miterlimit="10" stroke-linecap="round" stroke-linejoin="round"/><path d="M274.624 326.132a549.578 549.578 0 0 0 5.235 7.971c20.268 30.227 12.654 32.61 17.051 44.203 1.603 4.227 9.33 3.575 12.547 15.926 3.217 12.351 12.869 19.502 26.703 17.877.322-19.502-15.765-28.061-26.918-50.163 0 0-.571 1.936-17.358-50.299 0 0-2.517-2.86-11.811-7.049-.286 8.522-5.449 21.534-5.449 21.534Z" fill="#fff"/><path d="M274.624 326.132a549.578 549.578 0 0 0 5.235 7.971c20.268 30.227 12.654 32.61 17.051 44.203 1.603 4.227 9.33 3.575 12.547 15.926 3.217 12.351 12.869 19.502 26.703 17.877.322-19.502-15.765-28.061-26.918-50.163 0 0-.571 1.936-17.358-50.299 0 0-2.517-2.86-11.811-7.049-.286 8.522-5.449 21.534-5.449 21.534Z" stroke="#B880FF" stroke-width="1.4" stroke-miterlimit="10" stroke-linecap="round" stroke-linejoin="round"/><path d="M277.67 134.127c7.078-7.801 10.338-10.64 9.373-11.182-.965-.542-11.153 2.708-13.834 6.067-1.791 2.245-2.961 5.167-4.788 8.055a23.814 23.814 0 0 1-2.005 2.747c-.417.49-1.26 4.915 3.412 8.258 4.096 2.931 9.047 2.186 9.047 2.186s5.863-5.374 9.724-13.605c0 0 16.568-2.007 14.006-3.209-4.885-2.291-11.467-1.32-11.467-1.32l-4.015.355" fill="#B880FF"/><path d="M277.67 134.127c7.078-7.801 10.338-10.64 9.373-11.182-.965-.542-11.153 2.708-13.834 6.067-1.791 2.245-2.961 5.167-4.788 8.055a23.814 23.814 0 0 1-2.005 2.747c-.417.49-1.26 4.915 3.412 8.258 4.096 2.931 9.047 2.186 9.047 2.186s5.863-5.374 9.724-13.605c0 0 16.568-2.007 14.006-3.209-4.885-2.291-11.467-1.32-11.467-1.32l-4.015.355" stroke="#000" stroke-width="1.4" stroke-miterlimit="10" stroke-linecap="round" stroke-linejoin="round"/><path d="M287.006 123.78a6 6 0 0 1-.449.648c.224-.242.365-.46.449-.648Z" fill="#fff"/><path d="M282.379 126.845c2.37-.939 3.576-1.768 4.178-2.417a6.13 6.13 0 0 0 .45-.648c.237-.53.037-.835.037-.835-.965-.542-11.153 2.708-13.834 6.067-1.792 2.245-2.961 5.167-4.788 8.055a23.814 23.814 0 0 1-2.005 2.747c-.374.439-1.087 4.04 2.133 7.189 1.391-3.949 4.754-12.95 7.423-15.699 3.454-3.557 4.596-3.741 6.406-4.459Z" fill="#fff"/><path d="M277.671 134.127s1.361 4.494-.632 10.602" stroke="#000" stroke-width="1.4" stroke-miterlimit="10" stroke-linecap="round" stroke-linejoin="round"/><path d="M352.72 147.369v73.004c0 27.344-53.578 49.51-119.67 49.51-4.272 0-8.491-.093-12.647-.274l.015.001v-83.463l-.019-.213c4.157.141 8.378.213 12.651.213 66.092 0 119.67-17.251 119.67-38.532v-.246Z" fill="#B880FF"/><path d="M352.72 147.369v73.004c0 27.344-53.578 49.51-119.67 49.51-4.272 0-8.491-.093-12.647-.274l.015.001v-83.463l-.019-.213c4.157.141 8.378.213 12.651.213 66.092 0 119.67-17.251 119.67-38.532v-.246Z" stroke="#fff" stroke-width="1.4" stroke-miterlimit="10" stroke-linecap="round" stroke-linejoin="round"/><path d="m158.463 62.924 1.609 6.609 7.292 5.308 12.761 4.659 9.116-2.18v-5.876l-5.04-8.52-12.586-2.817-13.152 2.817Z" fill="#000"/><path d="M273.644 71.29V16.672c0 8.764-23.162 15.87-51.734 15.87-2.715 0-5.38-.065-7.982-.189v55.813l-.004.084c2.603.133 5.27.203 7.986.203 28.572 0 51.734-7.684 51.734-17.163Z" fill="#B880FF"/><path d="M273.644 71.29V16.672c0 8.764-23.162 15.87-51.734 15.87-2.715 0-5.38-.065-7.982-.189v55.813l-.004.084c2.603.133 5.27.203 7.986.203 28.572 0 51.734-7.684 51.734-17.163Z" stroke="#fff" stroke-width="1.4" stroke-miterlimit="10" stroke-linecap="round" stroke-linejoin="round"/><path d="M312.492 367.825s-3.367-1.978-7.097 1.489" stroke="#B880FF" stroke-width="1.4" stroke-miterlimit="10" stroke-linecap="round" stroke-linejoin="round"/><path d="M277.67 134.127c7.078-7.801 10.338-10.64 9.373-11.182-.965-.542-11.153 2.708-13.834 6.067-1.791 2.245-2.961 5.167-4.788 8.055a23.814 23.814 0 0 1-2.005 2.747c-.417.49-1.26 4.915 3.412 8.258 4.096 2.931 9.047 2.186 9.047 2.186s5.863-5.374 9.724-13.605c0 0 16.568-2.007 14.006-3.209-4.885-2.291-11.467-1.32-11.467-1.32l-4.015.355" stroke="#000" stroke-width="1.4" stroke-miterlimit="10" stroke-linecap="round" stroke-linejoin="round"/><path d="M246.589 62.834c-7.313 1.219-14.731 1.79-22.139 1.9M265.986 57.32c-4.409 2.066-9.201 3.419-13.933 4.462M266.525 64.524c2.666-1.601 5.746-3.557 6.746-6.689.919-2.875.456-5.994.375-8.952-.001 1.125-.002 2.25-.001 3.375l.001-3.375c-.001 2.194-1.295 4.102-2.892 5.482M224.45 72.923c12.293-.054 24.89-1.247 36.657-5.694" stroke="#fff" stroke-width="1.4" stroke-miterlimit="10" stroke-linecap="round" stroke-linejoin="round"/><path d="M264.736 35.916c-9.067 4.095-24.21 6.822-41.457 6.96v4.213c17.399-.15 32.658-3.15 41.696-7.644a148.924 148.924 0 0 0-.239-3.53Z" fill="#fff"/><path d="M264.736 35.916c-9.067 4.095-24.21 6.822-41.457 6.96v4.213c17.399-.15 32.658-3.15 41.696-7.644a148.924 148.924 0 0 0-.239-3.53Z" stroke="#fff" stroke-width="1.4" stroke-miterlimit="10" stroke-linecap="round" stroke-linejoin="round"/><path d="M252.5 48.408c-8.226 1.852-18.302 2.977-29.221 3.064v4.214c10.919-.094 20.995-1.31 29.221-3.314v-3.964Z" fill="#fff"/><path d="M252.5 48.408c-8.226 1.852-18.302 2.977-29.221 3.064v4.214c10.919-.094 20.995-1.31 29.221-3.314v-3.964Z" stroke="#fff" stroke-width="1.4" stroke-miterlimit="10" stroke-linecap="round" stroke-linejoin="round"/><path d="M193.244 151.042s-1.2 11.541-.786 13.687c.398 2.069 1.322 11.737 26.56 25.388" stroke="#B880FF" stroke-width="1.4" stroke-miterlimit="10" stroke-linecap="round" stroke-linejoin="round"/><path d="M192.371 145.859c-.175 2.556-1.021 10.816-1.021 10.816l1.021-10.816Z" fill="#B880FF"/><path d="M192.371 145.859c-.175 2.556-1.021 10.816-1.021 10.816" stroke="#000" stroke-width="1.4" stroke-miterlimit="10" stroke-linecap="round" stroke-linejoin="round"/><path d="M144.951 192.067s10.452 3.645 14.37 6.284C191.278 196.184 199 179.066 199 179.066s-2.552-2.73-4.793-6.223a112.834 112.834 0 0 1-51.779 14.616c1.53 2.835 2.523 4.608 2.523 4.608Z" fill="#fff"/><path d="M144.951 192.067s10.452 3.645 14.37 6.284C191.278 196.184 199 179.066 199 179.066s-2.552-2.73-4.793-6.223a112.834 112.834 0 0 1-51.779 14.616c1.53 2.835 2.523 4.608 2.523 4.608Z" stroke="#B880FF" stroke-width="1.4" stroke-miterlimit="10" stroke-linecap="round" stroke-linejoin="round"/><path d="M138.371 177.782c-.347 0-.692-.01-1.038-.013a480.811 480.811 0 0 0 5.095 9.69 112.838 112.838 0 0 0 51.78-14.616c-1.606-2.505-3.049-5.399-3.28-7.967-15.736 8.244-33.607 12.906-52.557 12.906Z" fill="#fff"/><path d="M138.371 177.782c-.347 0-.692-.01-1.038-.013a480.811 480.811 0 0 0 5.095 9.69 112.838 112.838 0 0 0 51.78-14.616c-1.606-2.505-3.049-5.399-3.28-7.967-15.736 8.244-33.607 12.906-52.557 12.906Z" stroke="#B880FF" stroke-width="1.4" stroke-miterlimit="10" stroke-linecap="round" stroke-linejoin="round"/><path d="M144.951 192.067s10.452 3.645 14.37 6.284C191.278 196.184 199 179.066 199 179.066s-2.552-2.73-4.793-6.223a112.834 112.834 0 0 1-51.779 14.616c1.53 2.835 2.523 4.608 2.523 4.608Z" fill="#fff"/><path d="M144.951 192.067s10.452 3.645 14.37 6.284C191.278 196.184 199 179.066 199 179.066s-2.552-2.73-4.793-6.223a112.834 112.834 0 0 1-51.779 14.616c1.53 2.835 2.523 4.608 2.523 4.608Z" stroke="#B880FF" stroke-width="1.4" stroke-miterlimit="10" stroke-linecap="round" stroke-linejoin="round"/><path d="M191.738 152.786s-.972 8.873-.84 11.733c.285 6.19 8.102 14.547 8.102 14.547l3.803 2.525M126.535 153.174c3.375 12.031 18.416 38.893 18.416 38.893" stroke="#000" stroke-width="1.4" stroke-miterlimit="10" stroke-linecap="round" stroke-linejoin="round"/><path d="M147.738 192.067c-4.499 0-10.51 1.95-13.727 8.017-3.217 6.067-3.861 21.668 19.303 46.37 23.164 24.702 36.033 34.67 37.964 42.254 1.93 7.583 1.93 19.501 8.15 24.268 6.219 4.767 17.802 13.868 19.518 11.051 1.715-2.817.643-22.415-3.647-28.326-4.289-5.91-13.734-14.293-15.45-19.493-1.716-5.2-31.95-84.141-52.111-84.141Z" fill="#B880FF"/><path d="M147.738 192.067c-4.499 0-10.51 1.95-13.727 8.017-3.217 6.067-3.861 21.668 19.303 46.37 23.164 24.702 36.033 34.67 37.964 42.254 1.93 7.583 1.93 19.501 8.15 24.268 6.219 4.767 17.802 13.868 19.518 11.051 1.715-2.817.643-22.415-3.647-28.326-4.289-5.91-13.734-14.293-15.45-19.493-1.716-5.2-31.95-84.141-52.111-84.141Z" stroke="#000" stroke-width="1.4" stroke-miterlimit="10" stroke-linecap="round" stroke-linejoin="round"/><path d="M161.518 255.051c18.007 18.56 28.071 27.021 29.76 33.657 1.931 7.583 1.931 19.501 8.15 24.268 6.221 4.767 17.802 13.868 19.518 11.051 1.716-2.817.644-22.415-3.646-28.325-4.29-5.911-13.735-14.294-15.45-19.494-.738-2.234-6.739-18.079-14.943-35.428l-.001.001c-8.517-7.19-21.488-8.194-21.488-8.194l-1.84 22.526-.06-.062Z" fill="#fff"/><path d="M161.518 255.051c18.007 18.56 28.071 27.021 29.76 33.657 1.931 7.583 1.931 19.501 8.15 24.268 6.221 4.767 17.802 13.868 19.518 11.051 1.716-2.817.644-22.415-3.646-28.325-4.29-5.911-13.735-14.294-15.45-19.494-.738-2.234-6.739-18.079-14.943-35.428l-.001.001c-8.517-7.19-21.488-8.194-21.488-8.194l-1.84 22.526-.06-.062Z" stroke="#fff" stroke-width="1.4" stroke-miterlimit="10" stroke-linecap="round" stroke-linejoin="round"/><path d="M203.719 279.607s-5.613-2.456-11.225 2.239" stroke="#B880FF" stroke-width="1.4" stroke-miterlimit="10" stroke-linecap="round" stroke-linejoin="round"/><path d="m343.141 197.588-2.525-1.084-7.961 7.139c-.602.027-1.205.061-1.807.088.64 1.187.47 1.95.414 2.154-.15.553-.567 1.026-1.178 1.345 2.661.114 5.251-.516 7.517-1.981 2.744-1.771 4.601-4.494 5.54-7.661ZM331.612 173.007l-14.413 6.719c1.885.329 3.758.653 5.62.975.097-.064.185-.132.287-.187 3.381-1.94 7.888-.581 10.787 2.968.001-.147.023-1.366.99-2.044 1.042-.732 2.258-.185 2.359-.137-.068-.677-.138-1.358-.205-2.035l-1.169-3.523a19.567 19.567 0 0 0-4.256-2.736Z" fill="#B880FF"/></svg>
